<?xml version="1.0" encoding="UTF-8"?>
<!DOCTYPE svg PUBLIC "-//W3C//DTD SVG 1.1//EN" "http://www.w3.org/Graphics/SVG/1.1/DTD/svg11.dtd">
<svg version="1.2" width="285.5mm" height="172mm" viewBox="0 0 28550 17200" preserveAspectRatio="xMidYMid" fill-rule="evenodd" stroke-width="28.222" stroke-linejoin="round" xmlns="http://www.w3.org/2000/svg" xmlns:ooo="http://xml.openoffice.org/svg/export" xmlns:xlink="http://www.w3.org/1999/xlink" xmlns:presentation="http://sun.com/xmlns/staroffice/presentation" xmlns:smil="http://www.w3.org/2001/SMIL20/" xmlns:anim="urn:oasis:names:tc:opendocument:xmlns:animation:1.0" xml:space="preserve">
 <defs class="ClipPathGroup">
  <clipPath id="presentation_clip_path" clipPathUnits="userSpaceOnUse">
   <rect x="0" y="0" width="28550" height="17200"/>
  </clipPath>
  <clipPath id="presentation_clip_path_shrink" clipPathUnits="userSpaceOnUse">
   <rect x="28" y="17" width="28493" height="17166"/>
  </clipPath>
 </defs>
 <defs class="TextShapeIndex">
  <g ooo:slide="id1" ooo:id-list="id3"/>
 </defs>
 <defs class="EmbeddedBulletChars">
  <g id="bullet-char-template-57356" transform="scale(0.00048828125,-0.00048828125)">
   <path d="M 580,1141 L 1163,571 580,0 -4,571 580,1141 Z"/>
  </g>
  <g id="bullet-char-template-57354" transform="scale(0.00048828125,-0.00048828125)">
   <path d="M 8,1128 L 1137,1128 1137,0 8,0 8,1128 Z"/>
  </g>
  <g id="bullet-char-template-10146" transform="scale(0.00048828125,-0.00048828125)">
   <path d="M 174,0 L 602,739 174,1481 1456,739 174,0 Z M 1358,739 L 309,1346 659,739 1358,739 Z"/>
  </g>
  <g id="bullet-char-template-10132" transform="scale(0.00048828125,-0.00048828125)">
   <path d="M 2015,739 L 1276,0 717,0 1260,543 174,543 174,936 1260,936 717,1481 1274,1481 2015,739 Z"/>
  </g>
  <g id="bullet-char-template-10007" transform="scale(0.00048828125,-0.00048828125)">
   <path d="M 0,-2 C -7,14 -16,27 -25,37 L 356,567 C 262,823 215,952 215,954 215,979 228,992 255,992 264,992 276,990 289,987 310,991 331,999 354,1012 L 381,999 492,748 772,1049 836,1024 860,1049 C 881,1039 901,1025 922,1006 886,937 835,863 770,784 769,783 710,716 594,584 L 774,223 C 774,196 753,168 711,139 L 727,119 C 717,90 699,76 672,76 641,76 570,178 457,381 L 164,-76 C 142,-110 111,-127 72,-127 30,-127 9,-110 8,-76 1,-67 -2,-52 -2,-32 -2,-23 -1,-13 0,-2 Z"/>
  </g>
  <g id="bullet-char-template-10004" transform="scale(0.00048828125,-0.00048828125)">
   <path d="M 285,-33 C 182,-33 111,30 74,156 52,228 41,333 41,471 41,549 55,616 82,672 116,743 169,778 240,778 293,778 328,747 346,684 L 369,508 C 377,444 397,411 428,410 L 1163,1116 C 1174,1127 1196,1133 1229,1133 1271,1133 1292,1118 1292,1087 L 1292,965 C 1292,929 1282,901 1262,881 L 442,47 C 390,-6 338,-33 285,-33 Z"/>
  </g>
  <g id="bullet-char-template-9679" transform="scale(0.00048828125,-0.00048828125)">
   <path d="M 813,0 C 632,0 489,54 383,161 276,268 223,411 223,592 223,773 276,916 383,1023 489,1130 632,1184 813,1184 992,1184 1136,1130 1245,1023 1353,916 1407,772 1407,592 1407,412 1353,268 1245,161 1136,54 992,0 813,0 Z"/>
  </g>
  <g id="bullet-char-template-8226" transform="scale(0.00048828125,-0.00048828125)">
   <path d="M 346,457 C 273,457 209,483 155,535 101,586 74,649 74,723 74,796 101,859 155,911 209,963 273,989 346,989 419,989 480,963 531,910 582,859 608,796 608,723 608,648 583,586 532,535 482,483 420,457 346,457 Z"/>
  </g>
  <g id="bullet-char-template-8211" transform="scale(0.00048828125,-0.00048828125)">
   <path d="M -4,459 L 1135,459 1135,606 -4,606 -4,459 Z"/>
  </g>
  <g id="bullet-char-template-61548" transform="scale(0.00048828125,-0.00048828125)">
   <path d="M 173,740 C 173,903 231,1043 346,1159 462,1274 601,1332 765,1332 928,1332 1067,1274 1183,1159 1299,1043 1357,903 1357,740 1357,577 1299,437 1183,322 1067,206 928,148 765,148 601,148 462,206 346,322 231,437 173,577 173,740 Z"/>
  </g>
 </defs>
 <g>
  <g id="id2" class="Master_Slide">
   <g id="bg-id2" class="Background"/>
   <g id="bo-id2" class="BackgroundObjects"/>
  </g>
 </g>
 <g class="SlideGroup">
  <g>
   <g id="container-id1">
    <g id="id1" class="Slide" clip-path="url(#presentation_clip_path)">
     <g class="Page">
      <g class="Graphic">
       <g id="id3">
        <rect class="BoundingBox" stroke="none" fill="none" x="0" y="0" width="32676" height="17198"/>
        <defs>
         <clipPath id="clip_path_1" clipPathUnits="userSpaceOnUse">
          <path d="M 0,0 L 32675,0 32675,17197 0,17197 0,0 Z"/>
         </clipPath>
        </defs>
        <g clip-path="url(#clip_path_1)">
         <path fill="rgb(178,34,52)" stroke="none" d="M 16337,17197 L 0,17197 0,0 32675,0 32675,17197 16337,17197 Z"/>
         <path fill="none" stroke="rgb(255,255,255)" stroke-width="1323" stroke-linejoin="miter" d="M 0,1984 L 32675,1984"/>
         <path fill="none" stroke="rgb(255,255,255)" stroke-width="1323" stroke-linejoin="miter" d="M 32675,4630 L 0,4630"/>
         <path fill="none" stroke="rgb(255,255,255)" stroke-width="1323" stroke-linejoin="miter" d="M 0,7276 L 32675,7276"/>
         <path fill="none" stroke="rgb(255,255,255)" stroke-width="1323" stroke-linejoin="miter" d="M 32675,9921 L 0,9921"/>
         <path fill="none" stroke="rgb(255,255,255)" stroke-width="1323" stroke-linejoin="miter" d="M 0,12567 L 32675,12567"/>
         <path fill="none" stroke="rgb(255,255,255)" stroke-width="1323" stroke-linejoin="miter" d="M 32675,15213 L 0,15213"/>
         <path fill="rgb(60,59,110)" stroke="none" d="M 6535,9260 L 0,9260 0,0 13070,0 13070,9260 6535,9260 Z"/>
         <path fill="rgb(255,255,255)" stroke="none" d="M 1089,397 L 1208,762 1592,762 1281,988 1400,1354 1089,1128 778,1354 897,988 586,762 970,762 1089,397 Z"/>
         <path fill="rgb(255,255,255)" stroke="none" d="M 1089,2249 L 1208,2614 1592,2614 1281,2840 1400,3206 1089,2980 778,3206 897,2840 586,2614 970,2614 1089,2249 Z"/>
         <path fill="rgb(255,255,255)" stroke="none" d="M 1089,4101 L 1208,4466 1592,4466 1281,4692 1400,5058 1089,4832 778,5058 897,4692 586,4466 970,4466 1089,4101 Z"/>
         <path fill="rgb(255,255,255)" stroke="none" d="M 1089,5953 L 1208,6318 1592,6318 1281,6544 1400,6910 1089,6684 778,6910 897,6544 586,6318 970,6318 1089,5953 Z"/>
         <path fill="rgb(255,255,255)" stroke="none" d="M 1089,7805 L 1208,8170 1592,8170 1281,8396 1400,8762 1089,8536 778,8762 897,8396 586,8170 970,8170 1089,7805 Z"/>
         <path fill="rgb(255,255,255)" stroke="none" d="M 2178,1323 L 2297,1688 2682,1688 2371,1914 2489,2280 2178,2054 1867,2280 1986,1914 1675,1688 2060,1688 2178,1323 Z"/>
         <path fill="rgb(255,255,255)" stroke="none" d="M 2178,3175 L 2297,3540 2682,3540 2371,3766 2489,4132 2178,3906 1867,4132 1986,3766 1675,3540 2060,3540 2178,3175 Z"/>
         <path fill="rgb(255,255,255)" stroke="none" d="M 2178,5027 L 2297,5392 2682,5392 2371,5618 2489,5984 2178,5758 1867,5984 1986,5618 1675,5392 2060,5392 2178,5027 Z"/>
         <path fill="rgb(255,255,255)" stroke="none" d="M 2178,6879 L 2297,7244 2682,7244 2371,7470 2489,7836 2178,7610 1867,7836 1986,7470 1675,7244 2060,7244 2178,6879 Z"/>
         <path fill="rgb(255,255,255)" stroke="none" d="M 3267,397 L 3386,762 3771,762 3460,988 3579,1354 3267,1128 2956,1354 3075,988 2764,762 3149,762 3267,397 Z"/>
         <path fill="rgb(255,255,255)" stroke="none" d="M 3267,2249 L 3386,2614 3771,2614 3460,2840 3579,3206 3267,2980 2956,3206 3075,2840 2764,2614 3149,2614 3267,2249 Z"/>
         <path fill="rgb(255,255,255)" stroke="none" d="M 3267,4101 L 3386,4466 3771,4466 3460,4692 3579,5058 3267,4832 2956,5058 3075,4692 2764,4466 3149,4466 3267,4101 Z"/>
         <path fill="rgb(255,255,255)" stroke="none" d="M 3267,5953 L 3386,6318 3771,6318 3460,6544 3579,6910 3267,6684 2956,6910 3075,6544 2764,6318 3149,6318 3267,5953 Z"/>
         <path fill="rgb(255,255,255)" stroke="none" d="M 3267,7805 L 3386,8170 3771,8170 3460,8396 3579,8762 3267,8536 2956,8762 3075,8396 2764,8170 3149,8170 3267,7805 Z"/>
         <path fill="rgb(255,255,255)" stroke="none" d="M 4357,1323 L 4475,1688 4860,1688 4549,1914 4668,2280 4357,2054 4046,2280 4164,1914 3853,1688 4238,1688 4357,1323 Z"/>
         <path fill="rgb(255,255,255)" stroke="none" d="M 4357,3175 L 4475,3540 4860,3540 4549,3766 4668,4132 4357,3906 4046,4132 4164,3766 3853,3540 4238,3540 4357,3175 Z"/>
         <path fill="rgb(255,255,255)" stroke="none" d="M 4357,5027 L 4475,5392 4860,5392 4549,5618 4668,5984 4357,5758 4046,5984 4164,5618 3853,5392 4238,5392 4357,5027 Z"/>
         <path fill="rgb(255,255,255)" stroke="none" d="M 4357,6879 L 4475,7244 4860,7244 4549,7470 4668,7836 4357,7610 4046,7836 4164,7470 3853,7244 4238,7244 4357,6879 Z"/>
         <path fill="rgb(255,255,255)" stroke="none" d="M 5446,397 L 5565,762 5949,762 5638,988 5757,1354 5446,1128 5135,1354 5254,988 4943,762 5327,762 5446,397 Z"/>
         <path fill="rgb(255,255,255)" stroke="none" d="M 5446,2249 L 5565,2614 5949,2614 5638,2840 5757,3206 5446,2980 5135,3206 5254,2840 4943,2614 5327,2614 5446,2249 Z"/>
         <path fill="rgb(255,255,255)" stroke="none" d="M 5446,4101 L 5565,4466 5949,4466 5638,4692 5757,5058 5446,4832 5135,5058 5254,4692 4943,4466 5327,4466 5446,4101 Z"/>
         <path fill="rgb(255,255,255)" stroke="none" d="M 5446,5953 L 5565,6318 5949,6318 5638,6544 5757,6910 5446,6684 5135,6910 5254,6544 4943,6318 5327,6318 5446,5953 Z"/>
         <path fill="rgb(255,255,255)" stroke="none" d="M 5446,7805 L 5565,8170 5949,8170 5638,8396 5757,8762 5446,8536 5135,8762 5254,8396 4943,8170 5327,8170 5446,7805 Z"/>
         <path fill="rgb(255,255,255)" stroke="none" d="M 6535,1323 L 6654,1688 7038,1688 6727,1914 6846,2280 6535,2054 6224,2280 6343,1914 6032,1688 6416,1688 6535,1323 Z"/>
         <path fill="rgb(255,255,255)" stroke="none" d="M 6535,3175 L 6654,3540 7038,3540 6727,3766 6846,4132 6535,3906 6224,4132 6343,3766 6032,3540 6416,3540 6535,3175 Z"/>
         <path fill="rgb(255,255,255)" stroke="none" d="M 6535,5027 L 6654,5392 7038,5392 6727,5618 6846,5984 6535,5758 6224,5984 6343,5618 6032,5392 6416,5392 6535,5027 Z"/>
         <path fill="rgb(255,255,255)" stroke="none" d="M 6535,6879 L 6654,7244 7038,7244 6727,7470 6846,7836 6535,7610 6224,7836 6343,7470 6032,7244 6416,7244 6535,6879 Z"/>
         <path fill="rgb(255,255,255)" stroke="none" d="M 7624,397 L 7743,762 8127,762 7816,988 7935,1354 7624,1128 7313,1354 7432,988 7121,762 7505,762 7624,397 Z"/>
         <path fill="rgb(255,255,255)" stroke="none" d="M 7624,2249 L 7743,2614 8127,2614 7816,2840 7935,3206 7624,2980 7313,3206 7432,2840 7121,2614 7505,2614 7624,2249 Z"/>
         <path fill="rgb(255,255,255)" stroke="none" d="M 7624,4101 L 7743,4466 8127,4466 7816,4692 7935,5058 7624,4832 7313,5058 7432,4692 7121,4466 7505,4466 7624,4101 Z"/>
         <path fill="rgb(255,255,255)" stroke="none" d="M 7624,5953 L 7743,6318 8127,6318 7816,6544 7935,6910 7624,6684 7313,6910 7432,6544 7121,6318 7505,6318 7624,5953 Z"/>
         <path fill="rgb(255,255,255)" stroke="none" d="M 7624,7805 L 7743,8170 8127,8170 7816,8396 7935,8762 7624,8536 7313,8762 7432,8396 7121,8170 7505,8170 7624,7805 Z"/>
         <path fill="rgb(255,255,255)" stroke="none" d="M 8713,1323 L 8832,1688 9217,1688 8906,1914 9024,2280 8713,2054 8402,2280 8521,1914 8210,1688 8595,1688 8713,1323 Z"/>
         <path fill="rgb(255,255,255)" stroke="none" d="M 8713,3175 L 8832,3540 9217,3540 8906,3766 9024,4132 8713,3906 8402,4132 8521,3766 8210,3540 8595,3540 8713,3175 Z"/>
         <path fill="rgb(255,255,255)" stroke="none" d="M 8713,5027 L 8832,5392 9217,5392 8906,5618 9024,5984 8713,5758 8402,5984 8521,5618 8210,5392 8595,5392 8713,5027 Z"/>
         <path fill="rgb(255,255,255)" stroke="none" d="M 8713,6879 L 8832,7244 9217,7244 8906,7470 9024,7836 8713,7610 8402,7836 8521,7470 8210,7244 8595,7244 8713,6879 Z"/>
         <path fill="rgb(255,255,255)" stroke="none" d="M 9802,397 L 9921,762 10306,762 9995,988 10114,1354 9802,1128 9491,1354 9610,988 9299,762 9684,762 9802,397 Z"/>
         <path fill="rgb(255,255,255)" stroke="none" d="M 9802,2249 L 9921,2614 10306,2614 9995,2840 10114,3206 9802,2980 9491,3206 9610,2840 9299,2614 9684,2614 9802,2249 Z"/>
         <path fill="rgb(255,255,255)" stroke="none" d="M 9802,4101 L 9921,4466 10306,4466 9995,4692 10114,5058 9802,4832 9491,5058 9610,4692 9299,4466 9684,4466 9802,4101 Z"/>
         <path fill="rgb(255,255,255)" stroke="none" d="M 9802,5953 L 9921,6318 10306,6318 9995,6544 10114,6910 9802,6684 9491,6910 9610,6544 9299,6318 9684,6318 9802,5953 Z"/>
         <path fill="rgb(255,255,255)" stroke="none" d="M 9802,7805 L 9921,8170 10306,8170 9995,8396 10114,8762 9802,8536 9491,8762 9610,8396 9299,8170 9684,8170 9802,7805 Z"/>
         <path fill="rgb(255,255,255)" stroke="none" d="M 10892,1323 L 11010,1688 11395,1688 11084,1914 11203,2280 10892,2054 10581,2280 10699,1914 10388,1688 10773,1688 10892,1323 Z"/>
         <path fill="rgb(255,255,255)" stroke="none" d="M 10892,3175 L 11010,3540 11395,3540 11084,3766 11203,4132 10892,3906 10581,4132 10699,3766 10388,3540 10773,3540 10892,3175 Z"/>
         <path fill="rgb(255,255,255)" stroke="none" d="M 10892,5027 L 11010,5392 11395,5392 11084,5618 11203,5984 10892,5758 10581,5984 10699,5618 10388,5392 10773,5392 10892,5027 Z"/>
         <path fill="rgb(255,255,255)" stroke="none" d="M 10892,6879 L 11010,7244 11395,7244 11084,7470 11203,7836 10892,7610 10581,7836 10699,7470 10388,7244 10773,7244 10892,6879 Z"/>
         <path fill="rgb(255,255,255)" stroke="none" d="M 11981,397 L 12100,762 12484,762 12173,988 12292,1354 11981,1128 11670,1354 11789,988 11478,762 11862,762 11981,397 Z"/>
         <path fill="rgb(255,255,255)" stroke="none" d="M 11981,2249 L 12100,2614 12484,2614 12173,2840 12292,3206 11981,2980 11670,3206 11789,2840 11478,2614 11862,2614 11981,2249 Z"/>
         <path fill="rgb(255,255,255)" stroke="none" d="M 11981,4101 L 12100,4466 12484,4466 12173,4692 12292,5058 11981,4832 11670,5058 11789,4692 11478,4466 11862,4466 11981,4101 Z"/>
         <path fill="rgb(255,255,255)" stroke="none" d="M 11981,5953 L 12100,6318 12484,6318 12173,6544 12292,6910 11981,6684 11670,6910 11789,6544 11478,6318 11862,6318 11981,5953 Z"/>
         <path fill="rgb(255,255,255)" stroke="none" d="M 11981,7805 L 12100,8170 12484,8170 12173,8396 12292,8762 11981,8536 11670,8762 11789,8396 11478,8170 11862,8170 11981,7805 Z"/>
        </g>
       </g>
      </g>
     </g>
    </g>
   </g>
  </g>
 </g>
</svg>